<mxfile host="Electron" agent="Mozilla/5.0 (X11; Linux x86_64) AppleWebKit/537.36 (KHTML, like Gecko) draw.io/24.7.17 Chrome/128.0.6613.36 Electron/32.0.1 Safari/537.36" version="24.7.17">
  <diagram name="PÃ¡gina-1" id="G5Zg4o8tyqqohGCtM93v">
    <mxGraphModel dx="1834" dy="2041" grid="0" gridSize="10" guides="1" tooltips="1" connect="1" arrows="1" fold="1" page="0" pageScale="1" pageWidth="827" pageHeight="1169" math="0" shadow="0">
      <root>
        <mxCell id="0" />
        <mxCell id="1" parent="0" />
        <mxCell id="OIoHFsJQ3Hu3Qg3iTP6c-1" value=":APIB3" style="shape=umlLifeline;perimeter=lifelinePerimeter;whiteSpace=wrap;html=1;container=1;dropTarget=0;collapsible=0;recursiveResize=0;outlineConnect=0;portConstraint=eastwest;newEdgeStyle={&quot;curved&quot;:0,&quot;rounded&quot;:0};" vertex="1" parent="1">
          <mxGeometry x="217" y="-879" width="130" height="314" as="geometry" />
        </mxCell>
        <mxCell id="OIoHFsJQ3Hu3Qg3iTP6c-2" value="" style="html=1;points=[[0,0,0,0,5],[0,1,0,0,-5],[1,0,0,0,5],[1,1,0,0,-5]];perimeter=orthogonalPerimeter;outlineConnect=0;targetShapes=umlLifeline;portConstraint=eastwest;newEdgeStyle={&quot;curved&quot;:0,&quot;rounded&quot;:0};" vertex="1" parent="OIoHFsJQ3Hu3Qg3iTP6c-1">
          <mxGeometry x="60" y="119" width="10" height="118" as="geometry" />
        </mxCell>
        <mxCell id="OIoHFsJQ3Hu3Qg3iTP6c-3" value="ordem:Ordem" style="shape=umlLifeline;perimeter=lifelinePerimeter;whiteSpace=wrap;html=1;container=1;dropTarget=0;collapsible=0;recursiveResize=0;outlineConnect=0;portConstraint=eastwest;newEdgeStyle={&quot;curved&quot;:0,&quot;rounded&quot;:0};" vertex="1" parent="1">
          <mxGeometry x="39" y="-880" width="130" height="314" as="geometry" />
        </mxCell>
        <mxCell id="OIoHFsJQ3Hu3Qg3iTP6c-4" value="" style="html=1;points=[[0,0,0,0,5],[0,1,0,0,-5],[1,0,0,0,5],[1,1,0,0,-5]];perimeter=orthogonalPerimeter;outlineConnect=0;targetShapes=umlLifeline;portConstraint=eastwest;newEdgeStyle={&quot;curved&quot;:0,&quot;rounded&quot;:0};" vertex="1" parent="OIoHFsJQ3Hu3Qg3iTP6c-3">
          <mxGeometry x="60" y="99" width="10" height="21" as="geometry" />
        </mxCell>
        <mxCell id="OIoHFsJQ3Hu3Qg3iTP6c-5" value="" style="html=1;points=[[0,0,0,0,5],[0,1,0,0,-5],[1,0,0,0,5],[1,1,0,0,-5]];perimeter=orthogonalPerimeter;outlineConnect=0;targetShapes=umlLifeline;portConstraint=eastwest;newEdgeStyle={&quot;curved&quot;:0,&quot;rounded&quot;:0};" vertex="1" parent="OIoHFsJQ3Hu3Qg3iTP6c-3">
          <mxGeometry x="60" y="237" width="10" height="21" as="geometry" />
        </mxCell>
        <mxCell id="OIoHFsJQ3Hu3Qg3iTP6c-6" value="API B3" style="shape=umlActor;verticalLabelPosition=bottom;verticalAlign=top;html=1;" vertex="1" parent="1">
          <mxGeometry x="397" y="-908" width="30" height="60" as="geometry" />
        </mxCell>
        <mxCell id="OIoHFsJQ3Hu3Qg3iTP6c-7" value="" style="endArrow=none;dashed=1;html=1;rounded=0;" edge="1" parent="1" source="OIoHFsJQ3Hu3Qg3iTP6c-9">
          <mxGeometry width="50" height="50" relative="1" as="geometry">
            <mxPoint x="411.99" y="-538" as="sourcePoint" />
            <mxPoint x="411.71000000000004" y="-818" as="targetPoint" />
          </mxGeometry>
        </mxCell>
        <mxCell id="OIoHFsJQ3Hu3Qg3iTP6c-8" value="" style="endArrow=none;dashed=1;html=1;rounded=0;" edge="1" parent="1" target="OIoHFsJQ3Hu3Qg3iTP6c-9">
          <mxGeometry width="50" height="50" relative="1" as="geometry">
            <mxPoint x="412" y="-563" as="sourcePoint" />
            <mxPoint x="411.71000000000004" y="-818" as="targetPoint" />
          </mxGeometry>
        </mxCell>
        <mxCell id="OIoHFsJQ3Hu3Qg3iTP6c-9" value="" style="html=1;points=[[0,0,0,0,5],[0,1,0,0,-5],[1,0,0,0,5],[1,1,0,0,-5]];perimeter=orthogonalPerimeter;outlineConnect=0;targetShapes=umlLifeline;portConstraint=eastwest;newEdgeStyle={&quot;curved&quot;:0,&quot;rounded&quot;:0};" vertex="1" parent="1">
          <mxGeometry x="407" y="-746" width="10" height="88" as="geometry" />
        </mxCell>
        <mxCell id="OIoHFsJQ3Hu3Qg3iTP6c-10" value="" style="endArrow=classic;html=1;rounded=0;" edge="1" parent="1" target="OIoHFsJQ3Hu3Qg3iTP6c-4">
          <mxGeometry width="50" height="50" relative="1" as="geometry">
            <mxPoint x="-88" y="-781" as="sourcePoint" />
            <mxPoint x="48.5" y="-781" as="targetPoint" />
          </mxGeometry>
        </mxCell>
        <mxCell id="OIoHFsJQ3Hu3Qg3iTP6c-11" value="getStatus(ordem)" style="edgeLabel;html=1;align=center;verticalAlign=middle;resizable=0;points=[];" vertex="1" connectable="0" parent="OIoHFsJQ3Hu3Qg3iTP6c-10">
          <mxGeometry x="0.1526" relative="1" as="geometry">
            <mxPoint x="-12" y="-9" as="offset" />
          </mxGeometry>
        </mxCell>
        <mxCell id="OIoHFsJQ3Hu3Qg3iTP6c-12" value="" style="endArrow=classic;html=1;rounded=0;" edge="1" parent="1" target="OIoHFsJQ3Hu3Qg3iTP6c-1">
          <mxGeometry width="50" height="50" relative="1" as="geometry">
            <mxPoint x="109" y="-760" as="sourcePoint" />
            <mxPoint x="388.5" y="-760" as="targetPoint" />
          </mxGeometry>
        </mxCell>
        <mxCell id="OIoHFsJQ3Hu3Qg3iTP6c-13" value="consultarStatusOrdem(ordem)" style="edgeLabel;html=1;align=center;verticalAlign=middle;resizable=0;points=[];" vertex="1" connectable="0" parent="OIoHFsJQ3Hu3Qg3iTP6c-12">
          <mxGeometry x="-0.5083" y="1" relative="1" as="geometry">
            <mxPoint x="46" y="-10" as="offset" />
          </mxGeometry>
        </mxCell>
        <mxCell id="OIoHFsJQ3Hu3Qg3iTP6c-14" value="" style="endArrow=classic;html=1;rounded=0;" edge="1" parent="1">
          <mxGeometry width="50" height="50" relative="1" as="geometry">
            <mxPoint x="286.9999999999998" y="-745.5000000000001" as="sourcePoint" />
            <mxPoint x="406.9999999999998" y="-745.5000000000001" as="targetPoint" />
          </mxGeometry>
        </mxCell>
        <mxCell id="OIoHFsJQ3Hu3Qg3iTP6c-15" value="consulta status&lt;div&gt;da ordem de&lt;/div&gt;&lt;div&gt;venda&lt;/div&gt;" style="edgeLabel;html=1;align=center;verticalAlign=middle;resizable=0;points=[];" vertex="1" connectable="0" parent="OIoHFsJQ3Hu3Qg3iTP6c-14">
          <mxGeometry x="0.1201" relative="1" as="geometry">
            <mxPoint x="-9" y="-22" as="offset" />
          </mxGeometry>
        </mxCell>
        <mxCell id="OIoHFsJQ3Hu3Qg3iTP6c-16" value="" style="endArrow=none;html=1;rounded=0;startArrow=open;startFill=0;endFill=0;dashed=1;" edge="1" parent="1">
          <mxGeometry width="50" height="50" relative="1" as="geometry">
            <mxPoint x="287.9999999999998" y="-670.0000000000001" as="sourcePoint" />
            <mxPoint x="407.9999999999998" y="-670.0000000000001" as="targetPoint" />
          </mxGeometry>
        </mxCell>
        <mxCell id="OIoHFsJQ3Hu3Qg3iTP6c-17" value="status atual da&amp;nbsp;&lt;div&gt;ordem de venda&lt;/div&gt;" style="edgeLabel;html=1;align=center;verticalAlign=middle;resizable=0;points=[];" vertex="1" connectable="0" parent="OIoHFsJQ3Hu3Qg3iTP6c-16">
          <mxGeometry x="0.1201" relative="1" as="geometry">
            <mxPoint x="-4" y="-16" as="offset" />
          </mxGeometry>
        </mxCell>
        <mxCell id="OIoHFsJQ3Hu3Qg3iTP6c-18" value="" style="endArrow=none;html=1;rounded=0;startArrow=open;startFill=0;endFill=0;dashed=1;" edge="1" parent="1" source="OIoHFsJQ3Hu3Qg3iTP6c-5">
          <mxGeometry width="50" height="50" relative="1" as="geometry">
            <mxPoint x="169" y="-642" as="sourcePoint" />
            <mxPoint x="279.5" y="-642" as="targetPoint" />
          </mxGeometry>
        </mxCell>
        <mxCell id="OIoHFsJQ3Hu3Qg3iTP6c-19" value="status" style="edgeLabel;html=1;align=center;verticalAlign=middle;resizable=0;points=[];" vertex="1" connectable="0" parent="OIoHFsJQ3Hu3Qg3iTP6c-18">
          <mxGeometry x="-0.3562" y="2" relative="1" as="geometry">
            <mxPoint x="29" y="13" as="offset" />
          </mxGeometry>
        </mxCell>
        <mxCell id="OIoHFsJQ3Hu3Qg3iTP6c-20" value="&lt;b&gt;:Interface&lt;/b&gt;" style="shape=umlLifeline;perimeter=lifelinePerimeter;whiteSpace=wrap;html=1;container=0;dropTarget=0;collapsible=0;recursiveResize=0;outlineConnect=0;portConstraint=eastwest;newEdgeStyle={&quot;edgeStyle&quot;:&quot;elbowEdgeStyle&quot;,&quot;elbow&quot;:&quot;vertical&quot;,&quot;curved&quot;:0,&quot;rounded&quot;:0};" vertex="1" parent="1">
          <mxGeometry x="-145" y="-880" width="104" height="306" as="geometry" />
        </mxCell>
        <mxCell id="OIoHFsJQ3Hu3Qg3iTP6c-21" value="" style="html=1;points=[];perimeter=orthogonalPerimeter;outlineConnect=0;targetShapes=umlLifeline;portConstraint=eastwest;newEdgeStyle={&quot;edgeStyle&quot;:&quot;elbowEdgeStyle&quot;,&quot;elbow&quot;:&quot;vertical&quot;,&quot;curved&quot;:0,&quot;rounded&quot;:0};" vertex="1" parent="OIoHFsJQ3Hu3Qg3iTP6c-20">
          <mxGeometry x="47" y="77" width="10" height="201" as="geometry" />
        </mxCell>
        <mxCell id="OIoHFsJQ3Hu3Qg3iTP6c-22" value="" style="endArrow=none;html=1;rounded=0;startArrow=open;startFill=0;endFill=0;dashed=1;" edge="1" parent="1" source="OIoHFsJQ3Hu3Qg3iTP6c-21">
          <mxGeometry width="50" height="50" relative="1" as="geometry">
            <mxPoint x="-35" y="-622" as="sourcePoint" />
            <mxPoint x="100.5" y="-622" as="targetPoint" />
          </mxGeometry>
        </mxCell>
        <mxCell id="OIoHFsJQ3Hu3Qg3iTP6c-23" value="responde status da ordem de&lt;div&gt;venda (executada, cancelada,&lt;/div&gt;&lt;div&gt;pendente)&lt;/div&gt;" style="edgeLabel;html=1;align=center;verticalAlign=middle;resizable=0;points=[];" vertex="1" connectable="0" parent="OIoHFsJQ3Hu3Qg3iTP6c-22">
          <mxGeometry x="-0.3562" y="2" relative="1" as="geometry">
            <mxPoint x="29" y="25" as="offset" />
          </mxGeometry>
        </mxCell>
        <mxCell id="OIoHFsJQ3Hu3Qg3iTP6c-24" value="UC-17&lt;div&gt;&lt;span style=&quot;background-color: initial;&quot;&gt;Consultar status da ordem de venda&lt;/span&gt;&lt;/div&gt;" style="strokeWidth=2;html=1;shape=mxgraph.flowchart.start_1;whiteSpace=wrap;" vertex="1" parent="1">
          <mxGeometry x="91" y="-1000" width="134" height="83" as="geometry" />
        </mxCell>
        <mxCell id="OIoHFsJQ3Hu3Qg3iTP6c-25" value="" style="endArrow=classic;html=1;rounded=0;fontSize=12;startSize=8;endSize=8;curved=1;endFill=1;fillColor=#dae8fc;strokeColor=#6c8ebf;" edge="1" parent="1">
          <mxGeometry width="50" height="50" relative="1" as="geometry">
            <mxPoint x="-172" y="-559" as="sourcePoint" />
            <mxPoint x="-111" y="-621" as="targetPoint" />
            <Array as="points">
              <mxPoint x="-174" y="-561" />
              <mxPoint x="-149" y="-607" />
            </Array>
          </mxGeometry>
        </mxCell>
        <mxCell id="OIoHFsJQ3Hu3Qg3iTP6c-26" value="&lt;font color=&quot;#3399ff&quot;&gt;essa resposta Ã© condiÃ§Ã£o de guarda em outros casos&amp;nbsp;&lt;/font&gt;&lt;span style=&quot;color: rgb(51, 153, 255); background-color: initial;&quot;&gt;de uso&lt;/span&gt;" style="rounded=1;whiteSpace=wrap;html=1;dashed=1;fillColor=none;strokeColor=#6c8ebf;" vertex="1" parent="1">
          <mxGeometry x="-244" y="-554" width="142" height="60" as="geometry" />
        </mxCell>
      </root>
    </mxGraphModel>
  </diagram>
</mxfile>
